<svg xmlns="http://www.w3.org/2000/svg" viewBox="0 0 168 72" role="img" aria-labelledby="title desc">
  <title id="title">FMG robot logo</title>
  <desc id="desc">A compact industrial robot head mark with FMG wordmark.</desc>
  <defs>
    <linearGradient id="robotFace" x1="18" y1="14" x2="58" y2="58" gradientUnits="userSpaceOnUse">
      <stop offset="0" stop-color="#ffffff"/>
      <stop offset="1" stop-color="#eef4ef"/>
    </linearGradient>
    <filter id="softLift" x="-20%" y="-20%" width="140%" height="140%">
      <feDropShadow dx="0" dy="4" stdDeviation="5" flood-color="#263026" flood-opacity=".10"/>
    </filter>
  </defs>
  <g fill="none" fill-rule="evenodd">
    <path d="M26 12h20" stroke="#8fe14e" stroke-width="4" stroke-linecap="round"/>
    <path d="M36 12V6" stroke="#4d5a4e" stroke-width="3" stroke-linecap="round"/>
    <circle cx="36" cy="5" r="3.5" fill="#8fe14e"/>
    <rect x="10" y="16" width="52" height="42" rx="13" fill="url(#robotFace)" stroke="#d8ded8" stroke-width="2" filter="url(#softLift)"/>
    <rect x="18" y="27" width="36" height="17" rx="8.5" fill="#263026"/>
    <circle cx="29" cy="35.5" r="3.5" fill="#8fe14e"/>
    <circle cx="43" cy="35.5" r="3.5" fill="#8fe14e"/>
    <path d="M25 50h22" stroke="#9aa39b" stroke-width="3" stroke-linecap="round"/>
    <path d="M62 34h8m-68 0h8" stroke="#cbd4cc" stroke-width="3" stroke-linecap="round"/>
    <path d="M82 20h35M82 36h27M82 52h45" stroke="#d8ded8" stroke-width="4" stroke-linecap="round"/>
    <text x="82" y="39" fill="#263026" font-family="-apple-system, BlinkMacSystemFont, 'SF Pro Display', 'Segoe UI', system-ui, sans-serif" font-size="26" font-weight="760" letter-spacing="-1.2">FMG</text>
    <text x="83" y="55" fill="#6b756d" font-family="'JetBrains Mono', 'IBM Plex Mono', ui-monospace, Menlo, monospace" font-size="8.5" font-weight="650" letter-spacing="1.4">ROBOT OPS</text>
    <circle cx="146" cy="24" r="3" fill="#8fe14e"/>
    <circle cx="156" cy="36" r="3" fill="#8fe14e"/>
    <path d="M146 24l10 12" stroke="#8fe14e" stroke-width="2.5" stroke-linecap="round"/>
  </g>
</svg>
